<svg width="256" height="256" viewBox="0 0 256 256" fill="none" xmlns="http://www.w3.org/2000/svg">
<rect width="256" height="256" fill="white"/>
<path fill-rule="evenodd" clip-rule="evenodd" d="M111.937 80.5766L97.2809 88.9522L86.8125 94.7897C81.055 98.0892 77.6528 103.927 77.6528 110.272V147.074C77.6528 153.419 81.055 159.256 86.8125 162.556L89.4296 164.079C90.9999 165.348 93.0935 166.363 94.9255 167.124L112.983 177.277C117.694 179.815 120.835 184.891 120.835 190.475V205.449C120.573 215.348 112.983 223.977 102.253 224.992C99.8979 225.246 97.2809 224.992 94.6638 224.231C72.4186 217.632 54.6225 200.373 48.3415 177.784L47.8181 175.754C43.3691 160.272 41.5371 144.536 41.5371 128.8V128.546V128.292C41.5371 112.556 43.3691 96.8202 47.8181 81.338L48.3415 79.3075C54.6225 56.465 72.4186 39.2062 94.9255 32.6072C101.992 30.5768 110.105 32.3534 115.6 38.191C119.003 41.7443 120.835 46.5666 120.835 51.6427V66.3634C120.835 72.201 117.171 77.5309 111.937 80.5766ZM144.599 176.311L159.254 167.935L169.723 162.098C175.48 158.798 178.882 152.961 178.882 146.615V109.814C178.882 103.468 175.48 97.6309 169.723 94.3314L167.105 92.8086C165.535 91.5396 163.442 90.5244 161.61 89.7629L143.552 79.6107C138.841 77.0726 135.701 71.9965 135.701 66.4128V51.4382C135.962 41.5398 143.552 32.9104 154.282 31.8952C156.637 31.6414 159.254 31.8952 161.871 32.6566C184.117 39.2555 201.913 56.5143 208.194 79.1031L208.717 81.1335C213.166 96.6157 214.998 112.352 214.998 128.088V128.341V128.595C214.998 144.331 213.146 160.144 208.697 175.626L208.697 175.627L208.194 177.58C201.913 200.422 184.117 217.681 161.61 224.28C154.544 226.311 146.431 224.534 140.935 218.696C137.533 215.143 135.701 210.321 135.701 205.245V190.524C135.701 184.686 139.364 179.356 144.599 176.311Z" fill="#E84E33"/>
</svg>
